# xmcd
#
# Track frame offsets:
#	150
#	17025
#	35925
#	52200
#	67538
#	83100
#	97703
#	111037
#	127275
#	142050
#	160575
#	176700
#	190650
#	205835
#	223199
#	240525
#	252000
#	265913
#	280796
#	297221
#	313668
#	325609
#
# Disc length: 4662 seconds
#
# Revision: 1
# Processed by: cddbd v1.4PL0 Copyright (c) Steve Scherf et al.
# Submitted via: audiograbber 1.81.03
#
DISCID=40123416
DTITLE=Tony Joe White - Dangerous Eyes
DYEAR=2002
DGENRE=
TTITLE0=Soulful Eyes
TTITLE1=You Taught Me How To Love
TTITLE2=You Are Loved By Me
TTITLE3=Rainy Day Love
TTITLE4=We'll Live On Love
TTITLE5=Making Love Is Good For You
TTITLE6=Texas Woman
TTITLE7=Hold On To Your Hiney
TTITLE8=Swamp Boogie
TTITLE9=That Loving Feeling
TTITLE10=Dangerous
TTITLE11=Naughty Lady
TTITLE12=Our Day Will Come
TTITLE13=If You're Gonna Love Sombody
TTITLE14=Swamp Rap
TTITLE15=Do You Have A Garter Belt
TTITLE16=Down By The Border
TTITLE17=Lady In My Life
TTITLE18=We Belong Together
TTITLE19=You Just Get Better All The Time
TTITLE20=Living In The River City
TTITLE21=Excerpt From A 1997 Sydney Interview
EXTD=
EXTT0=
EXTT1=
EXTT2=
EXTT3=
EXTT4=
EXTT5=
EXTT6=
EXTT7=
EXTT8=
EXTT9=
EXTT10=
EXTT11=
EXTT12=
EXTT13=
EXTT14=
EXTT15=
EXTT16=
EXTT17=
EXTT18=
EXTT19=
EXTT20=
EXTT21=
PLAYORDER=
